<svg width="20" height="20" viewBox="0 0 20 20" fill="none" xmlns="http://www.w3.org/2000/svg">
<path d="M18.8337 0.6073L11.3281 6.497L12.7236 3.02609L18.8337 0.6073Z" fill="#E17726"/>
<path d="M1.52187 0.6073L8.96057 6.55215L7.63192 3.02609L1.52187 0.6073ZM16.1324 14.2643L14.1351 17.4994L18.4114 18.7479L19.636 14.3346L16.1324 14.2643ZM0.727539 14.3346L1.94475 18.7479L6.21356 17.4994L4.22431 14.2637L0.727539 14.3346Z" fill="#E27625"/>
<path d="M5.98307 8.79684L4.79614 10.6968L9.02781 10.9011L8.88666 6.07078L5.98307 8.79684ZM14.3721 8.79684L11.4251 6.01685L11.3285 10.9017L15.5602 10.6975L14.3721 8.79684ZM6.21336 17.4981L8.77465 16.1865L6.56996 14.3647L6.21336 17.4981ZM11.5811 16.1865L14.1349 17.4981L13.7864 14.3647L11.5811 16.1865Z" fill="#E27625"/>
<path d="M14.1337 17.498L11.5793 16.1865L11.7879 17.9459L11.765 18.6914L14.1337 17.498ZM6.21216 17.498L8.58772 18.692L8.57286 17.9459L8.77344 16.1865L6.21216 17.498Z" fill="#D5BFB2"/>
<path d="M8.63299 13.2032L6.51001 12.5435L8.00952 11.8127L8.63299 13.2032ZM11.7217 13.2032L12.3446 11.8127L13.8521 12.5435L11.7217 13.2032Z" fill="#233447"/>
<path d="M6.21411 17.4988L6.58556 14.2637L4.22485 14.334L6.21411 17.4988ZM13.7717 14.2637L14.1357 17.4988L16.1324 14.334L13.7717 14.2637ZM15.5615 10.6976L11.3292 10.9025L11.723 13.2031L12.3459 11.8134L13.8534 12.5437L15.5615 10.6976ZM6.51127 12.5437L8.01078 11.8134L8.63424 13.2031L9.02798 10.9025L4.79631 10.6982L6.51127 12.5437Z" fill="#CC6228"/>
<path d="M4.79492 10.6976L6.56931 14.3655L6.50987 12.5437L4.79492 10.6976ZM13.852 12.5437L13.7851 14.3655L15.5595 10.6982L13.852 12.5437ZM9.02659 10.9025L8.63285 13.2031L9.13002 15.9207L9.24203 12.3388L9.02659 10.9025ZM11.3279 10.9025L11.1198 12.3316L11.2239 15.9207L11.721 13.2031L11.3279 10.9025Z" fill="#E27525"/>
<path d="M11.7217 13.2021L11.2246 15.9197L11.5806 16.1864L13.7853 14.3645L13.8521 12.5427L11.7217 13.2021ZM6.51001 12.5427L6.56944 14.3645L8.77414 16.1864L9.13073 15.9197L8.63356 13.2021L6.51001 12.5427Z" fill="#F5841F"/>
<path d="M11.7663 18.6922L11.7891 17.9457L11.596 17.7729H8.75981L8.57408 17.9457L8.58894 18.6916L6.21338 17.4976L7.04485 18.2204L8.73066 19.4545H11.6183L13.3109 18.2204L14.135 17.4976L11.7663 18.6922Z" fill="#C0AC9D"/>
<path d="M11.5813 16.1865L11.2247 15.9198H9.13204L8.77545 16.1865L8.57544 17.9459L8.76059 17.7731H11.5968L11.7899 17.9459L11.5813 16.1865Z" fill="#161616"/>
<path d="M19.1547 6.88184L19.785 3.63154L18.8352 0.6073L11.5823 6.30063L14.3739 8.7976L18.3158 10.0158L19.1844 8.93942L18.8055 8.64851L19.4073 8.06791L18.9467 7.69094L19.5479 7.20366L19.1547 6.88184ZM0.57251 3.63094L1.21083 6.88184L0.802808 7.20427L1.41141 7.69094L0.951388 8.06791L1.55256 8.64912L1.17369 8.94003L2.04231 10.0152L5.98481 8.79821L8.77583 6.30124L1.52285 0.6073L0.57251 3.63094Z" fill="#763E1A"/>
<path d="M18.3154 10.0134L14.3734 8.79641L15.5609 10.697L13.7866 14.3643L16.133 14.3328H19.6366L18.3154 10.0134ZM5.98383 8.79641L2.0419 10.0134L0.727539 14.3328H4.22488L6.57072 14.3643L4.79634 10.697L5.98383 8.79641ZM11.3293 10.9013L11.5819 6.29884L12.7248 3.02429H7.6325L8.77542 6.29884L9.028 10.9013L9.12458 12.3461L9.13201 15.9194H11.2253L11.2327 12.3461L11.3293 10.9013Z" fill="#F5841F"/>
</svg>
